<svg viewBox="0 0 120 26" fill="none" xmlns="http://www.w3.org/2000/svg">
<path d="M0.152 10.6C0.152 8.952 0.512 7.48 1.232 6.184C1.952 4.872 2.936 3.856 4.184 3.136C5.432 2.4 6.824 2.032 8.36 2.032C10.232 2.032 11.832 2.48 13.16 3.376C14.504 4.256 15.48 5.504 16.088 7.12H14.12C13.64 5.984 12.904 5.096 11.912 4.456C10.936 3.816 9.752 3.496 8.36 3.496C7.128 3.496 6.016 3.784 5.024 4.36C4.048 4.936 3.28 5.768 2.72 6.856C2.16 7.928 1.88 9.176 1.88 10.6C1.88 12.024 2.16 13.272 2.72 14.344C3.28 15.416 4.048 16.24 5.024 16.816C6.016 17.392 7.128 17.68 8.36 17.68C9.752 17.68 10.936 17.368 11.912 16.744C12.904 16.104 13.64 15.224 14.12 14.104H16.088C15.48 15.704 14.504 16.944 13.16 17.824C11.816 18.704 10.216 19.144 8.36 19.144C6.824 19.144 5.432 18.784 4.184 18.064C2.936 17.328 1.952 16.312 1.232 15.016C0.512 13.72 0.152 12.248 0.152 10.6ZM20.2756 3.424C19.9396 3.424 19.6516 3.304 19.4116 3.064C19.1716 2.824 19.0516 2.528 19.0516 2.176C19.0516 1.824 19.1716 1.536 19.4116 1.312C19.6516 1.072 19.9396 0.951999 20.2756 0.951999C20.6116 0.951999 20.8996 1.072 21.1396 1.312C21.3796 1.536 21.4996 1.824 21.4996 2.176C21.4996 2.528 21.3796 2.824 21.1396 3.064C20.8996 3.304 20.6116 3.424 20.2756 3.424ZM21.1156 5.896V19H19.4356V5.896H21.1156ZM31.064 5.656C32.632 5.656 33.912 6.144 34.904 7.12C35.896 8.08 36.392 9.48 36.392 11.32V19H34.736V11.512C34.736 10.088 34.376 9 33.656 8.248C32.952 7.496 31.984 7.12 30.752 7.12C29.488 7.12 28.48 7.52 27.728 8.32C26.976 9.12 26.6 10.296 26.6 11.848V19H24.92V5.896H26.6V8.128C27.016 7.328 27.616 6.72 28.4 6.304C29.184 5.872 30.072 5.656 31.064 5.656ZM51.9635 11.776C51.9635 12.352 51.9475 12.792 51.9155 13.096H41.0435C41.0915 14.088 41.3315 14.936 41.7635 15.64C42.1955 16.344 42.7635 16.88 43.4675 17.248C44.1715 17.6 44.9395 17.776 45.7715 17.776C46.8595 17.776 47.7715 17.512 48.5075 16.984C49.2595 16.456 49.7555 15.744 49.9955 14.848H51.7715C51.4515 16.128 50.7635 17.176 49.7075 17.992C48.6675 18.792 47.3555 19.192 45.7715 19.192C44.5395 19.192 43.4355 18.92 42.4595 18.376C41.4835 17.816 40.7155 17.032 40.1555 16.024C39.6115 15 39.3395 13.808 39.3395 12.448C39.3395 11.088 39.6115 9.896 40.1555 8.872C40.6995 7.848 41.4595 7.064 42.4355 6.52C43.4115 5.976 44.5235 5.704 45.7715 5.704C47.0195 5.704 48.1075 5.976 49.0355 6.52C49.9795 7.064 50.6995 7.8 51.1955 8.728C51.7075 9.64 51.9635 10.656 51.9635 11.776ZM50.2595 11.728C50.2755 10.752 50.0755 9.92 49.6595 9.232C49.2595 8.544 48.7075 8.024 48.0035 7.672C47.2995 7.32 46.5315 7.144 45.6995 7.144C44.4515 7.144 43.3875 7.544 42.5075 8.344C41.6275 9.144 41.1395 10.272 41.0435 11.728H50.2595Z" fill="white"/>
<path d="M67.4452 7.576C67.4452 8.552 67.2212 9.448 66.7732 10.264C66.3252 11.064 65.6372 11.712 64.7092 12.208C63.7812 12.704 62.6292 12.952 61.2532 12.952H58.7092V19H54.6052V2.152H61.2532C62.5972 2.152 63.7332 2.384 64.6612 2.848C65.5892 3.312 66.2852 3.952 66.7492 4.768C67.2132 5.584 67.4452 6.52 67.4452 7.576ZM60.9412 9.688C61.7252 9.688 62.3092 9.504 62.6932 9.136C63.0772 8.768 63.2692 8.248 63.2692 7.576C63.2692 6.904 63.0772 6.384 62.6932 6.016C62.3092 5.648 61.7252 5.464 60.9412 5.464H58.7092V9.688H60.9412ZM68.7658 12.28C68.7658 10.904 69.0218 9.696 69.5338 8.656C70.0618 7.616 70.7738 6.816 71.6698 6.256C72.5658 5.696 73.5658 5.416 74.6698 5.416C75.6138 5.416 76.4378 5.608 77.1418 5.992C77.8618 6.376 78.4138 6.88 78.7978 7.504V5.608H82.9018V19H78.7978V17.104C78.3978 17.728 77.8378 18.232 77.1178 18.616C76.4138 19 75.5898 19.192 74.6458 19.192C73.5578 19.192 72.5658 18.912 71.6698 18.352C70.7738 17.776 70.0618 16.968 69.5338 15.928C69.0218 14.872 68.7658 13.656 68.7658 12.28ZM78.7978 12.304C78.7978 11.28 78.5098 10.472 77.9338 9.88C77.3738 9.288 76.6858 8.992 75.8698 8.992C75.0538 8.992 74.3578 9.288 73.7818 9.88C73.2218 10.456 72.9418 11.256 72.9418 12.28C72.9418 13.304 73.2218 14.12 73.7818 14.728C74.3578 15.32 75.0538 15.616 75.8698 15.616C76.6858 15.616 77.3738 15.32 77.9338 14.728C78.5098 14.136 78.7978 13.328 78.7978 12.304ZM89.9748 7.84C90.4548 7.104 91.0548 6.528 91.7748 6.112C92.4948 5.68 93.2948 5.464 94.1748 5.464V9.808H93.0468C92.0228 9.808 91.2548 10.032 90.7428 10.48C90.2308 10.912 89.9748 11.68 89.9748 12.784V19H85.8708V5.608H89.9748V7.84ZM103.6 15.52V19H101.512C100.024 19 98.8644 18.64 98.0324 17.92C97.2004 17.184 96.7844 15.992 96.7844 14.344V9.016H95.1524V5.608H96.7844V2.344H100.888V5.608H103.576V9.016H100.888V14.392C100.888 14.792 100.984 15.08 101.176 15.256C101.368 15.432 101.688 15.52 102.136 15.52H103.6ZM119.566 5.608L111.166 25.36H106.75L109.822 18.544L104.374 5.608H108.958L112.054 13.984L115.126 5.608H119.566Z" fill="#0074FF"/>
</svg>
