<svg width="64" height="22" viewBox="0 0 64 22" fill="none" xmlns="http://www.w3.org/2000/svg">
<path d="M0.992 0.199999H8.624C10.448 0.199999 12.056 0.551999 13.448 1.256C14.856 1.944 15.944 2.92 16.712 4.184C17.496 5.448 17.888 6.92 17.888 8.6C17.888 10.28 17.496 11.752 16.712 13.016C15.944 14.28 14.856 15.264 13.448 15.968C12.056 16.656 10.448 17 8.624 17H0.992V0.199999ZM8.432 13.808C10.112 13.808 11.448 13.344 12.44 12.416C13.448 11.472 13.952 10.2 13.952 8.6C13.952 7 13.448 5.736 12.44 4.808C11.448 3.864 10.112 3.392 8.432 3.392H4.88V13.808H8.432ZM26.7001 17.192C25.3401 17.192 24.1161 16.912 23.0281 16.352C21.9561 15.776 21.1161 14.984 20.5081 13.976C19.9001 12.968 19.5961 11.824 19.5961 10.544C19.5961 9.264 19.9001 8.12 20.5081 7.112C21.1161 6.104 21.9561 5.32 23.0281 4.76C24.1161 4.184 25.3401 3.896 26.7001 3.896C28.0601 3.896 29.2761 4.184 30.3481 4.76C31.4201 5.32 32.2601 6.104 32.8681 7.112C33.4761 8.12 33.7801 9.264 33.7801 10.544C33.7801 11.824 33.4761 12.968 32.8681 13.976C32.2601 14.984 31.4201 15.776 30.3481 16.352C29.2761 16.912 28.0601 17.192 26.7001 17.192ZM26.7001 14.12C27.6601 14.12 28.4441 13.8 29.0521 13.16C29.6761 12.504 29.9881 11.632 29.9881 10.544C29.9881 9.456 29.6761 8.592 29.0521 7.952C28.4441 7.296 27.6601 6.968 26.7001 6.968C25.7401 6.968 24.9481 7.296 24.3241 7.952C23.7001 8.592 23.3881 9.456 23.3881 10.544C23.3881 11.632 23.7001 12.504 24.3241 13.16C24.9481 13.8 25.7401 14.12 26.7001 14.12ZM49.6027 4.088V14.84C49.6027 17.208 48.9867 18.968 47.7547 20.12C46.5227 21.272 44.7227 21.848 42.3547 21.848C41.1067 21.848 39.9227 21.696 38.8027 21.392C37.6827 21.088 36.7547 20.648 36.0187 20.072L37.5067 17.384C38.0507 17.832 38.7387 18.184 39.5707 18.44C40.4027 18.712 41.2347 18.848 42.0667 18.848C43.3627 18.848 44.3147 18.552 44.9227 17.96C45.5467 17.384 45.8587 16.504 45.8587 15.32V14.768C44.8827 15.84 43.5227 16.376 41.7787 16.376C40.5947 16.376 39.5067 16.12 38.5147 15.608C37.5387 15.08 36.7627 14.344 36.1867 13.4C35.6107 12.456 35.3227 11.368 35.3227 10.136C35.3227 8.904 35.6107 7.816 36.1867 6.872C36.7627 5.928 37.5387 5.2 38.5147 4.688C39.5067 4.16 40.5947 3.896 41.7787 3.896C43.6507 3.896 45.0747 4.512 46.0507 5.744V4.088H49.6027ZM42.5227 13.304C43.5147 13.304 44.3227 13.016 44.9467 12.44C45.5867 11.848 45.9067 11.08 45.9067 10.136C45.9067 9.192 45.5867 8.432 44.9467 7.856C44.3227 7.264 43.5147 6.968 42.5227 6.968C41.5307 6.968 40.7147 7.264 40.0747 7.856C39.4347 8.432 39.1147 9.192 39.1147 10.136C39.1147 11.08 39.4347 11.848 40.0747 12.44C40.7147 13.016 41.5307 13.304 42.5227 13.304ZM57.4314 17.192C56.3594 17.192 55.3114 17.064 54.2874 16.808C53.2634 16.536 52.4474 16.2 51.8394 15.8L53.0874 13.112C53.6634 13.48 54.3594 13.784 55.1754 14.024C55.9914 14.248 56.7914 14.36 57.5754 14.36C59.1594 14.36 59.9514 13.968 59.9514 13.184C59.9514 12.816 59.7354 12.552 59.3034 12.392C58.8714 12.232 58.2074 12.096 57.3114 11.984C56.2554 11.824 55.3834 11.64 54.6954 11.432C54.0074 11.224 53.4074 10.856 52.8954 10.328C52.3994 9.8 52.1514 9.048 52.1514 8.072C52.1514 7.256 52.3834 6.536 52.8474 5.912C53.3274 5.272 54.0154 4.776 54.9114 4.424C55.8234 4.072 56.8954 3.896 58.1274 3.896C59.0394 3.896 59.9434 4 60.8394 4.208C61.7514 4.4 62.5034 4.672 63.0954 5.024L61.8474 7.688C60.7114 7.048 59.4714 6.728 58.1274 6.728C57.3274 6.728 56.7274 6.84 56.3274 7.064C55.9274 7.288 55.7274 7.576 55.7274 7.928C55.7274 8.328 55.9434 8.608 56.3754 8.768C56.8074 8.928 57.4954 9.08 58.4394 9.224C59.4954 9.4 60.3594 9.592 61.0314 9.8C61.7034 9.992 62.2874 10.352 62.7834 10.88C63.2794 11.408 63.5274 12.144 63.5274 13.088C63.5274 13.888 63.2874 14.6 62.8074 15.224C62.3274 15.848 61.6234 16.336 60.6954 16.688C59.7834 17.024 58.6954 17.192 57.4314 17.192Z" fill="#ECB302"/>
</svg>
