<svg width="61" height="16" viewBox="0 0 61 16" fill="none" xmlns="http://www.w3.org/2000/svg">
<path d="M0.66 0.999999H7.02C8.54 0.999999 9.88 1.29333 11.04 1.88C12.2133 2.45333 13.12 3.26667 13.76 4.32C14.4133 5.37333 14.74 6.6 14.74 8C14.74 9.4 14.4133 10.6267 13.76 11.68C13.12 12.7333 12.2133 13.5533 11.04 14.14C9.88 14.7133 8.54 15 7.02 15H0.66V0.999999ZM6.86 12.34C8.26 12.34 9.37333 11.9533 10.2 11.18C11.04 10.3933 11.46 9.33333 11.46 8C11.46 6.66667 11.04 5.61333 10.2 4.84C9.37333 4.05333 8.26 3.66 6.86 3.66H3.9V12.34H6.86ZM23.9634 15.24C22.5101 15.24 21.1968 14.9267 20.0234 14.3C18.8634 13.6733 17.9501 12.8133 17.2834 11.72C16.6301 10.6133 16.3034 9.37333 16.3034 8C16.3034 6.62667 16.6301 5.39333 17.2834 4.3C17.9501 3.19333 18.8634 2.32667 20.0234 1.7C21.1968 1.07333 22.5101 0.76 23.9634 0.76C25.4168 0.76 26.7234 1.07333 27.8834 1.7C29.0434 2.32667 29.9568 3.19333 30.6234 4.3C31.2901 5.39333 31.6234 6.62667 31.6234 8C31.6234 9.37333 31.2901 10.6133 30.6234 11.72C29.9568 12.8133 29.0434 13.6733 27.8834 14.3C26.7234 14.9267 25.4168 15.24 23.9634 15.24ZM23.9634 12.48C24.7901 12.48 25.5368 12.2933 26.2034 11.92C26.8701 11.5333 27.3901 11 27.7634 10.32C28.1501 9.64 28.3434 8.86667 28.3434 8C28.3434 7.13333 28.1501 6.36 27.7634 5.68C27.3901 5 26.8701 4.47333 26.2034 4.1C25.5368 3.71333 24.7901 3.52 23.9634 3.52C23.1368 3.52 22.3901 3.71333 21.7234 4.1C21.0568 4.47333 20.5301 5 20.1434 5.68C19.7701 6.36 19.5834 7.13333 19.5834 8C19.5834 8.86667 19.7701 9.64 20.1434 10.32C20.5301 11 21.0568 11.5333 21.7234 11.92C22.3901 12.2933 23.1368 12.48 23.9634 12.48ZM43.5184 7.78H46.4784V13.46C45.7184 14.0333 44.8384 14.4733 43.8384 14.78C42.8384 15.0867 41.8318 15.24 40.8184 15.24C39.3651 15.24 38.0584 14.9333 36.8984 14.32C35.7384 13.6933 34.8251 12.8333 34.1584 11.74C33.5051 10.6333 33.1784 9.38667 33.1784 8C33.1784 6.61333 33.5051 5.37333 34.1584 4.28C34.8251 3.17333 35.7451 2.31333 36.9184 1.7C38.0918 1.07333 39.4118 0.76 40.8784 0.76C42.1051 0.76 43.2184 0.966666 44.2184 1.38C45.2184 1.79333 46.0584 2.39333 46.7384 3.18L44.6584 5.1C43.6584 4.04667 42.4518 3.52 41.0384 3.52C40.1451 3.52 39.3518 3.70667 38.6584 4.08C37.9651 4.45333 37.4251 4.98 37.0384 5.66C36.6518 6.34 36.4584 7.12 36.4584 8C36.4584 8.86667 36.6518 9.64 37.0384 10.32C37.4251 11 37.9584 11.5333 38.6384 11.92C39.3318 12.2933 40.1184 12.48 40.9984 12.48C41.9318 12.48 42.7718 12.28 43.5184 11.88V7.78ZM54.0881 15.24C52.9815 15.24 51.9081 15.0933 50.8681 14.8C49.8415 14.4933 49.0148 14.1 48.3881 13.62L49.4881 11.18C50.0881 11.62 50.8015 11.9733 51.6281 12.24C52.4548 12.5067 53.2815 12.64 54.1081 12.64C55.0281 12.64 55.7081 12.5067 56.1481 12.24C56.5881 11.96 56.8081 11.5933 56.8081 11.14C56.8081 10.8067 56.6748 10.5333 56.4081 10.32C56.1548 10.0933 55.8215 9.91333 55.4081 9.78C55.0081 9.64667 54.4615 9.5 53.7681 9.34C52.7015 9.08667 51.8281 8.83333 51.1481 8.58C50.4681 8.32667 49.8815 7.92 49.3881 7.36C48.9081 6.8 48.6681 6.05333 48.6681 5.12C48.6681 4.30667 48.8881 3.57333 49.3281 2.92C49.7681 2.25333 50.4281 1.72667 51.3081 1.34C52.2015 0.953333 53.2881 0.76 54.5681 0.76C55.4615 0.76 56.3348 0.866666 57.1881 1.08C58.0415 1.29333 58.7881 1.6 59.4281 2L58.4281 4.46C57.1348 3.72667 55.8415 3.36 54.5481 3.36C53.6415 3.36 52.9681 3.50667 52.5281 3.8C52.1015 4.09333 51.8881 4.48 51.8881 4.96C51.8881 5.44 52.1348 5.8 52.6281 6.04C53.1348 6.26667 53.9015 6.49333 54.9281 6.72C55.9948 6.97333 56.8681 7.22667 57.5481 7.48C58.2281 7.73333 58.8081 8.13333 59.2881 8.68C59.7815 9.22667 60.0281 9.96667 60.0281 10.9C60.0281 11.7 59.8015 12.4333 59.3481 13.1C58.9081 13.7533 58.2415 14.2733 57.3481 14.66C56.4548 15.0467 55.3681 15.24 54.0881 15.24Z" fill="#ECB302"/>
</svg>
