<svg width="118" height="23" viewBox="0 0 118 23" fill="none" xmlns="http://www.w3.org/2000/svg">
<path d="M16.096 5.16C17.696 5.16 18.96 5.624 19.888 6.552C20.832 7.48 21.304 8.856 21.304 10.68V18H19V10.944C19 9.712 18.712 8.784 18.136 8.16C17.576 7.536 16.768 7.224 15.712 7.224C14.544 7.224 13.616 7.592 12.928 8.328C12.24 9.048 11.896 10.088 11.896 11.448V18H9.592V10.944C9.592 9.712 9.304 8.784 8.728 8.16C8.168 7.536 7.36 7.224 6.304 7.224C5.136 7.224 4.208 7.592 3.52 8.328C2.832 9.048 2.488 10.088 2.488 11.448V18H0.184V5.28H2.392V7.176C2.856 6.52 3.464 6.024 4.216 5.688C4.968 5.336 5.824 5.16 6.784 5.16C7.776 5.16 8.656 5.36 9.424 5.76C10.192 6.16 10.784 6.744 11.2 7.512C11.68 6.776 12.344 6.2 13.192 5.784C14.056 5.368 15.024 5.16 16.096 5.16ZM36.565 5.28L30.397 19.272C29.853 20.568 29.213 21.48 28.477 22.008C27.757 22.536 26.885 22.8 25.861 22.8C25.237 22.8 24.629 22.696 24.037 22.488C23.461 22.296 22.981 22.008 22.597 21.624L23.581 19.896C24.237 20.52 24.997 20.832 25.861 20.832C26.421 20.832 26.885 20.68 27.253 20.376C27.637 20.088 27.981 19.584 28.285 18.864L28.693 17.976L23.077 5.28H25.477L29.917 15.456L34.309 5.28H36.565Z" fill="white"/>
<path d="M63.9153 1.2L58.4193 18H54.2433L50.5473 6.624L46.7313 18H42.5793L37.0593 1.2H41.0913L44.8833 13.008L48.8433 1.2H52.4433L56.2833 13.104L60.1953 1.2H63.9153ZM70.0688 4.896C72.0688 4.896 73.6048 5.376 74.6768 6.336C75.7488 7.28 76.2848 8.712 76.2848 10.632V18H72.7808V16.392C72.0768 17.592 70.7648 18.192 68.8448 18.192C67.8528 18.192 66.9888 18.024 66.2528 17.688C65.5328 17.352 64.9808 16.888 64.5968 16.296C64.2128 15.704 64.0208 15.032 64.0208 14.28C64.0208 13.08 64.4688 12.136 65.3648 11.448C66.2768 10.76 67.6768 10.416 69.5648 10.416H72.5408C72.5408 9.6 72.2928 8.976 71.7968 8.544C71.3008 8.096 70.5568 7.872 69.5648 7.872C68.8768 7.872 68.1968 7.984 67.5248 8.208C66.8688 8.416 66.3088 8.704 65.8448 9.072L64.5008 6.456C65.2048 5.96 66.0448 5.576 67.0208 5.304C68.0128 5.032 69.0288 4.896 70.0688 4.896ZM69.7808 15.672C70.4208 15.672 70.9888 15.528 71.4848 15.24C71.9808 14.936 72.3328 14.496 72.5408 13.92V12.6H69.9728C68.4368 12.6 67.6688 13.104 67.6688 14.112C67.6688 14.592 67.8528 14.976 68.2208 15.264C68.6048 15.536 69.1248 15.672 69.7808 15.672ZM79.6733 0.191999H83.4173V18H79.6733V0.191999ZM86.8921 0.191999H90.6361V18H86.8921V0.191999ZM106.759 11.592C106.759 11.64 106.735 11.976 106.687 12.6H96.9188C97.0948 13.4 97.5108 14.032 98.1668 14.496C98.8228 14.96 99.6388 15.192 100.615 15.192C101.287 15.192 101.879 15.096 102.391 14.904C102.919 14.696 103.407 14.376 103.855 13.944L105.847 16.104C104.631 17.496 102.855 18.192 100.519 18.192C99.0628 18.192 97.7748 17.912 96.6548 17.352C95.5348 16.776 94.6708 15.984 94.0628 14.976C93.4548 13.968 93.1508 12.824 93.1508 11.544C93.1508 10.28 93.4468 9.144 94.0388 8.136C94.6468 7.112 95.4708 6.32 96.5108 5.76C97.5668 5.184 98.7428 4.896 100.039 4.896C101.303 4.896 102.447 5.168 103.471 5.712C104.495 6.256 105.295 7.04 105.871 8.064C106.463 9.072 106.759 10.248 106.759 11.592ZM100.063 7.728C99.2148 7.728 98.5028 7.968 97.9268 8.448C97.3508 8.928 96.9988 9.584 96.8708 10.416H103.231C103.103 9.6 102.751 8.952 102.175 8.472C101.599 7.976 100.895 7.728 100.063 7.728ZM117.579 17.376C117.211 17.648 116.755 17.856 116.211 18C115.683 18.128 115.123 18.192 114.531 18.192C112.995 18.192 111.803 17.8 110.955 17.016C110.123 16.232 109.707 15.08 109.707 13.56V8.256H107.715V5.376H109.707V2.232H113.451V5.376H116.667V8.256H113.451V13.512C113.451 14.056 113.587 14.48 113.859 14.784C114.147 15.072 114.547 15.216 115.059 15.216C115.651 15.216 116.155 15.056 116.571 14.736L117.579 17.376Z" fill="#0066FF"/>
</svg>
